<svg
  width="123"
  height="40"
  viewBox="0 0 123 40"
  fill="none"
  xmlns="http://www.w3.org/2000/svg"
>
<rect width="123" height="40" rx="7" fill="black" />
<g clipPath="url(#clip0_2025_24630)">
<path
      d="M31.3 15.8634C31.1432 15.9804 28.3757 17.4806 28.3757 20.8164C28.3757 24.6748 31.8973 26.0398 32.0027 26.0736C31.9865 26.1568 31.4432 27.943 30.1459 29.763C28.9892 31.3646 27.7811 32.9636 25.9432 32.9636C24.1054 32.9636 23.6324 31.9366 21.5108 31.9366C19.4432 31.9366 18.7081 32.9974 17.027 32.9974C15.3459 32.9974 14.173 31.5154 12.8243 29.6954C11.2622 27.5582 10 24.238 10 21.0868C10 16.0324 13.4162 13.3518 16.7784 13.3518C18.5649 13.3518 20.0541 14.4802 21.1757 14.4802C22.2432 14.4802 23.9081 13.2842 25.9405 13.2842C26.7108 13.2842 29.4784 13.3518 31.3 15.8634ZM24.9757 11.1444C25.8162 10.185 26.4108 8.8538 26.4108 7.5226C26.4108 7.338 26.3946 7.1508 26.3595 7C24.9919 7.0494 23.3649 7.8762 22.3838 8.9708C21.6135 9.8132 20.8946 11.1444 20.8946 12.4938C20.8946 12.6966 20.9297 12.8994 20.9459 12.9644C21.0324 12.98 21.173 12.9982 21.3135 12.9982C22.5405 12.9982 24.0838 12.2078 24.9757 11.1444Z"
      fill="white"
    />
</g>
<path
    d="M51.89 25H53.75L49.955 14.5H47.885L44.075 25H45.95L46.685 22.885H51.155L51.89 25ZM47.255 21.265L48.92 16.525L50.585 21.265H47.255ZM59.0191 17.305C57.8491 17.305 56.9641 17.785 56.3941 18.58V17.5H54.7741V28H56.3941V23.935C56.9641 24.715 57.8491 25.195 59.0191 25.195C61.0591 25.195 62.7541 23.485 62.7541 21.25C62.7541 19.03 61.0591 17.305 59.0191 17.305ZM58.7641 23.65C57.4141 23.65 56.3941 22.645 56.3941 21.25C56.3941 19.855 57.4141 18.85 58.7641 18.85C60.1141 18.85 61.1341 19.855 61.1341 21.25C61.1341 22.645 60.1141 23.65 58.7641 23.65ZM68.4673 17.305C67.2973 17.305 66.4123 17.785 65.8423 18.58V17.5H64.2223V28H65.8423V23.935C66.4123 24.715 67.2973 25.195 68.4673 25.195C70.5073 25.195 72.2023 23.485 72.2023 21.25C72.2023 19.03 70.5073 17.305 68.4673 17.305ZM68.2123 23.65C66.8623 23.65 65.8423 22.645 65.8423 21.25C65.8423 19.855 66.8623 18.85 68.2123 18.85C69.5623 18.85 70.5823 19.855 70.5823 21.25C70.5823 22.645 69.5623 23.65 68.2123 23.65ZM81.0206 25.195C83.2106 25.195 84.7406 24.025 84.7406 22.105C84.7406 20.02 82.9856 19.48 81.2456 18.925C79.7156 18.445 79.1306 18.1 79.1306 17.29C79.1306 16.495 79.7756 15.985 80.7806 15.985C81.9506 15.985 82.6106 16.615 82.9856 17.455L84.4406 16.615C83.7806 15.22 82.5056 14.305 80.7806 14.305C79.0106 14.305 77.4056 15.4 77.4056 17.335C77.4056 19.315 78.9956 19.915 80.6306 20.41C82.1906 20.89 83.0156 21.205 83.0156 22.135C83.0156 22.9 82.4306 23.515 81.0656 23.515C79.6406 23.515 78.8306 22.81 78.4556 21.745L76.9706 22.615C77.5256 24.175 78.9506 25.195 81.0206 25.195ZM90.087 19.06V17.5H88.227V15.4L86.607 15.88V17.5H85.227V19.06H86.607V22.66C86.607 24.61 87.597 25.3 90.087 25V23.545C88.857 23.605 88.227 23.62 88.227 22.66V19.06H90.087ZM94.7887 25.195C96.9937 25.195 98.7487 23.47 98.7487 21.25C98.7487 19.015 96.9937 17.305 94.7887 17.305C92.5987 17.305 90.8287 19.015 90.8287 21.25C90.8287 23.47 92.5987 25.195 94.7887 25.195ZM94.7887 23.62C93.4687 23.62 92.4487 22.615 92.4487 21.25C92.4487 19.885 93.4687 18.88 94.7887 18.88C96.1087 18.88 97.1287 19.885 97.1287 21.25C97.1287 22.615 96.1087 23.62 94.7887 23.62ZM101.834 18.76V17.5H100.214V25H101.834V21.22C101.834 19.54 103.079 19.045 104.144 19.12V17.365C103.199 17.365 102.284 17.74 101.834 18.76ZM106.264 21.94H112.234C112.264 21.73 112.294 21.49 112.294 21.265C112.294 19.105 110.764 17.305 108.529 17.305C106.174 17.305 104.569 19.03 104.569 21.25C104.569 23.5 106.174 25.195 108.649 25.195C110.119 25.195 111.244 24.58 111.934 23.56L110.599 22.78C110.239 23.305 109.564 23.71 108.664 23.71C107.464 23.71 106.519 23.11 106.264 21.94ZM106.249 20.62C106.474 19.495 107.299 18.775 108.514 18.775C109.489 18.775 110.434 19.33 110.659 20.62H106.249Z"
    fill="white"
  />
<defs>
<clipPath id="clip0_2025_24630">
<rect width="22" height="26" fill="white" transform="translate(10 7)" />
</clipPath>
</defs>
</svg>
