<svg width="140" height="40" viewBox="0 0 140 40" fill="none" xmlns="http://www.w3.org/2000/svg">
<rect width="140" height="40" rx="7" fill="black"/>
<path d="M10.423 7.25656C10.1261 7.65728 9.976 8.17013 10.0031 8.6909V31.3139C9.97754 31.8345 10.1275 32.3467 10.423 32.7483L10.4917 32.8256L21.7527 20.1484V19.8478L10.4917 7.17926L10.423 7.25656Z" fill="url(#paint0_linear_2025_24634)"/>
<path d="M25.5089 24.3736L21.7527 20.1479V19.8473L25.5089 15.6301L25.5929 15.6817L30.0438 18.5246C31.3188 19.3319 31.3188 20.6632 30.0438 21.4791L25.5929 24.322L25.5089 24.3736Z" fill="url(#paint1_linear_2025_24634)"/>
<path d="M25.5929 24.3218L21.7756 20.0274L10.4231 32.7475C10.6848 32.9895 11.0106 33.1268 11.3492 33.1377C11.6878 33.1485 12.02 33.0324 12.2936 32.8076L25.57 24.3218" fill="url(#paint2_linear_2025_24634)"/>
<path d="M25.5929 15.6815L12.2936 7.18712C12.023 6.95308 11.6885 6.83198 11.3474 6.84451C11.0062 6.85704 10.6795 7.00243 10.4231 7.25583L21.7527 20.0017L25.5929 15.6815Z" fill="url(#paint3_linear_2025_24634)"/>
<path opacity="0.1" d="M25.5089 24.2272L12.2935 32.6614C12.0299 32.8824 11.7099 33.0018 11.3812 33.0018C11.0524 33.0018 10.7325 32.8824 10.4689 32.6614L10.4001 32.7387L10.4689 32.816C10.7325 33.037 11.0524 33.1564 11.3812 33.1564C11.7099 33.1564 12.0299 33.037 12.2935 32.816L25.57 24.3302L25.5089 24.2272Z" fill="black"/>
<path opacity="0.07" d="M10.423 32.6097C10.127 32.2051 9.97712 31.69 10.0031 31.1667V31.3128C9.97756 31.8333 10.1275 32.3455 10.423 32.7471L10.4918 32.6698L10.423 32.6097Z" fill="black"/>
<path opacity="0.07" d="M30.0438 21.3251L25.5089 24.2281L25.5929 24.3226L30.0438 21.4453C30.3049 21.3161 30.5308 21.1113 30.6985 20.8518C30.8661 20.5922 30.9696 20.2873 30.9981 19.968C30.9461 20.2631 30.8324 20.54 30.6664 20.776C30.5005 21.0119 30.2871 21.2001 30.0438 21.3251Z" fill="black"/>
<path opacity="0.3" d="M12.2935 7.34188L30.0438 18.6706C30.2847 18.7924 30.4967 18.9765 30.6625 19.2078C30.8283 19.4391 30.9433 19.7112 30.9981 20.0018C30.9711 19.6821 30.8683 19.3763 30.7004 19.1165C30.5326 18.8566 30.3058 18.6522 30.0438 18.5246L12.2935 7.18728C11.0415 6.37993 10.0032 7.04986 10.0032 8.69033V8.83634C10.0032 7.20446 11.0415 6.52594 12.2935 7.34188Z" fill="white"/>
<path d="M56.265 19.57H51.015V21.115H54.525C54.21 22.525 53.04 23.515 51.135 23.515C48.78 23.515 47.25 21.88 47.25 19.765C47.25 17.62 48.81 15.985 51.03 15.985C52.41 15.985 53.58 16.675 54.12 17.65L55.605 16.795C54.72 15.31 53.025 14.305 51.03 14.305C47.88 14.305 45.525 16.735 45.525 19.75C45.525 22.765 47.85 25.195 51.12 25.195C54.195 25.195 56.265 23.155 56.265 20.29V19.57ZM61.277 25.195C63.482 25.195 65.237 23.47 65.237 21.25C65.237 19.015 63.482 17.305 61.277 17.305C59.087 17.305 57.317 19.015 57.317 21.25C57.317 23.47 59.087 25.195 61.277 25.195ZM61.277 23.62C59.957 23.62 58.937 22.615 58.937 21.25C58.937 19.885 59.957 18.88 61.277 18.88C62.597 18.88 63.617 19.885 63.617 21.25C63.617 22.615 62.597 23.62 61.277 23.62ZM70.2418 25.195C72.4468 25.195 74.2018 23.47 74.2018 21.25C74.2018 19.015 72.4468 17.305 70.2418 17.305C68.0518 17.305 66.2818 19.015 66.2818 21.25C66.2818 23.47 68.0518 25.195 70.2418 25.195ZM70.2418 23.62C68.9218 23.62 67.9018 22.615 67.9018 21.25C67.9018 19.885 68.9218 18.88 70.2418 18.88C71.5618 18.88 72.5818 19.885 72.5818 21.25C72.5818 22.615 71.5618 23.62 70.2418 23.62ZM81.6367 17.5V18.61C81.0667 17.8 80.1817 17.305 79.0267 17.305C76.9117 17.305 75.2467 19.03 75.2467 21.175C75.2467 23.32 76.9117 25.045 79.0267 25.045C80.1817 25.045 81.0667 24.55 81.6367 23.74V24.655C81.6367 25.96 80.7967 26.725 79.4017 26.725C78.0967 26.725 77.5417 26.215 77.2117 25.57L75.8167 26.38C76.4467 27.58 77.7217 28.195 79.3717 28.195C81.3367 28.195 83.2267 27.07 83.2267 24.655V17.5H81.6367ZM79.2517 23.53C77.8867 23.53 76.8667 22.525 76.8667 21.175C76.8667 19.825 77.8867 18.82 79.2517 18.82C80.6167 18.82 81.6367 19.825 81.6367 21.175C81.6367 22.525 80.6167 23.53 79.2517 23.53ZM85.1149 25H86.7349V14.05H85.1149V25ZM89.8909 21.94H95.8609C95.8909 21.73 95.9209 21.49 95.9209 21.265C95.9209 19.105 94.3909 17.305 92.1559 17.305C89.8009 17.305 88.1959 19.03 88.1959 21.25C88.1959 23.5 89.8009 25.195 92.2759 25.195C93.7459 25.195 94.8709 24.58 95.5609 23.56L94.2259 22.78C93.8659 23.305 93.1909 23.71 92.2909 23.71C91.0909 23.71 90.1459 23.11 89.8909 21.94ZM89.8759 20.62C90.1009 19.495 90.9259 18.775 92.1409 18.775C93.1159 18.775 94.0609 19.33 94.2859 20.62H89.8759ZM105.071 14.5H101.201V25H102.926V21.4H105.071C107.051 21.4 108.551 19.885 108.551 17.95C108.551 16 107.051 14.5 105.071 14.5ZM105.071 19.78H102.926V16.12H105.071C106.091 16.12 106.826 16.885 106.826 17.95C106.826 19 106.091 19.78 105.071 19.78ZM109.944 25H111.564V14.05H109.944V25ZM119.385 17.5V18.565C118.815 17.785 117.93 17.305 116.76 17.305C114.72 17.305 113.025 19.015 113.025 21.25C113.025 23.47 114.72 25.195 116.76 25.195C117.93 25.195 118.815 24.715 119.385 23.92V25H121.005V17.5H119.385ZM117.015 23.65C115.665 23.65 114.645 22.645 114.645 21.25C114.645 19.855 115.665 18.85 117.015 18.85C118.365 18.85 119.385 19.855 119.385 21.25C119.385 22.645 118.365 23.65 117.015 23.65ZM127.948 17.5L126.028 22.945L123.793 17.5H122.023L125.203 24.865L125.128 25.015C124.753 26.005 124.183 26.545 123.133 26.485V28C124.858 28.105 126.088 27.145 126.793 25.24L129.673 17.5H127.948Z" fill="white"/>
<defs>
<linearGradient id="paint0_linear_2025_24634" x1="20.7602" y1="8.45041" x2="3.70948" y2="23.6066" gradientUnits="userSpaceOnUse">
<stop stop-color="#008EFF"/>
<stop offset="0.01" stop-color="#008FFF"/>
<stop offset="0.26" stop-color="#00ACFF"/>
<stop offset="0.51" stop-color="#00C0FF"/>
<stop offset="0.76" stop-color="#00CDFF"/>
<stop offset="1" stop-color="#00D1FF"/>
</linearGradient>
<linearGradient id="paint1_linear_2025_24634" x1="30.1965" y1="20.0019" x2="8.19376" y2="20.0019" gradientUnits="userSpaceOnUse">
<stop stop-color="#FFD800"/>
<stop offset="1" stop-color="#FF8A00"/>
</linearGradient>
<linearGradient id="paint2_linear_2025_24634" x1="23.5087" y1="22.3464" x2="0.393427" y2="42.8933" gradientUnits="userSpaceOnUse">
<stop stop-color="#FF3A44"/>
<stop offset="1" stop-color="#B11162"/>
</linearGradient>
<linearGradient id="paint3_linear_2025_24634" x1="7.56778" y1="-0.276587" x2="17.8961" y2="8.8966" gradientUnits="userSpaceOnUse">
<stop stop-color="#328E71"/>
<stop offset="0.07" stop-color="#2D9571"/>
<stop offset="0.48" stop-color="#15BD74"/>
<stop offset="0.8" stop-color="#06D575"/>
<stop offset="1" stop-color="#00DE76"/>
</linearGradient>
</defs>
</svg>
