<svg
  width="346"
  height="218"
  viewBox="0 0 346 218"
  fill="none"
  xmlns="http://www.w3.org/2000/svg"
>
<g clipPath="url(#clip0_2109_24201)">
<g filter="url(#filter0_d_2109_24201)">
<rect width="345.916" height="218" rx="24" fill="#262626" />
</g>
<path
      d="M47.458 89.9998C47.458 78.9542 56.4123 69.9998 67.458 69.9998H117.101C128.147 69.9998 137.101 78.9542 137.101 89.9998V135C137.101 146.046 128.147 155 117.101 155H67.458C56.4123 155 47.458 146.046 47.458 135V89.9998Z"
      fill="white"
    />
<path
      d="M92.3016 84.6908L106.824 108.541H77.7793L92.3016 84.6908Z"
      fill="black"
    />
<path
      d="M77.8834 108.469L92.4056 132.319H63.3611L77.8834 108.469Z"
      fill="black"
    />
<path
      d="M106.72 108.469L121.242 132.319H92.1973L106.72 108.469Z"
      fill="#46FFBC"
    />
<rect x="169.294" y="70.9999" width="123" height="39" rx="7" fill="black" />
<g clipPath="url(#clip1_2109_24201)">
<path
        d="M200.594 86.3633C200.437 86.4803 197.67 87.9805 197.67 91.3163C197.67 95.1747 201.191 96.5397 201.297 96.5735C201.281 96.6567 200.737 98.4429 199.44 100.263C198.283 101.865 197.075 103.464 195.237 103.464C193.399 103.464 192.926 102.437 190.805 102.437C188.737 102.437 188.002 103.497 186.321 103.497C184.64 103.497 183.467 102.015 182.118 100.195C180.556 98.0581 179.294 94.7379 179.294 91.5867C179.294 86.5323 182.71 83.8517 186.072 83.8517C187.859 83.8517 189.348 84.9801 190.47 84.9801C191.537 84.9801 193.202 83.7841 195.235 83.7841C196.005 83.7841 198.772 83.8517 200.594 86.3633V86.3633ZM194.27 81.6443C195.11 80.6849 195.705 79.3537 195.705 78.0225C195.705 77.8379 195.689 77.6507 195.654 77.4999C194.286 77.5493 192.659 78.3761 191.678 79.4707C190.908 80.3131 190.189 81.6443 190.189 82.9937C190.189 83.1965 190.224 83.3993 190.24 83.4643C190.327 83.4799 190.467 83.4981 190.608 83.4981C191.835 83.4981 193.378 82.7077 194.27 81.6443Z"
        fill="white"
      />
</g>
<path
      d="M221.184 95.4999H223.044L219.249 84.9999H217.179L213.369 95.4999H215.244L215.979 93.3849H220.449L221.184 95.4999ZM216.549 91.7649L218.214 87.0249L219.879 91.7649H216.549ZM228.313 87.8049C227.143 87.8049 226.258 88.2849 225.688 89.0799V87.9999H224.068V98.4999H225.688V94.4349C226.258 95.2149 227.143 95.6949 228.313 95.6949C230.353 95.6949 232.048 93.9849 232.048 91.7499C232.048 89.5299 230.353 87.8049 228.313 87.8049ZM228.058 94.1499C226.708 94.1499 225.688 93.1449 225.688 91.7499C225.688 90.3549 226.708 89.3499 228.058 89.3499C229.408 89.3499 230.428 90.3549 230.428 91.7499C230.428 93.1449 229.408 94.1499 228.058 94.1499ZM237.761 87.8049C236.591 87.8049 235.706 88.2849 235.136 89.0799V87.9999H233.516V98.4999H235.136V94.4349C235.706 95.2149 236.591 95.6949 237.761 95.6949C239.801 95.6949 241.496 93.9849 241.496 91.7499C241.496 89.5299 239.801 87.8049 237.761 87.8049ZM237.506 94.1499C236.156 94.1499 235.136 93.1449 235.136 91.7499C235.136 90.3549 236.156 89.3499 237.506 89.3499C238.856 89.3499 239.876 90.3549 239.876 91.7499C239.876 93.1449 238.856 94.1499 237.506 94.1499ZM250.315 95.6949C252.505 95.6949 254.035 94.5249 254.035 92.6049C254.035 90.5199 252.28 89.9799 250.54 89.4249C249.01 88.9449 248.425 88.5999 248.425 87.7899C248.425 86.9949 249.07 86.4849 250.075 86.4849C251.245 86.4849 251.905 87.1149 252.28 87.9549L253.735 87.1149C253.075 85.7199 251.8 84.8049 250.075 84.8049C248.305 84.8049 246.7 85.8999 246.7 87.8349C246.7 89.8149 248.29 90.4149 249.925 90.9099C251.485 91.3899 252.31 91.7049 252.31 92.6349C252.31 93.3999 251.725 94.0149 250.36 94.0149C248.935 94.0149 248.125 93.3099 247.75 92.2449L246.265 93.1149C246.82 94.6749 248.245 95.6949 250.315 95.6949ZM259.381 89.5599V87.9999H257.521V85.8999L255.901 86.3799V87.9999H254.521V89.5599H255.901V93.1599C255.901 95.1099 256.891 95.7999 259.381 95.4999V94.0449C258.151 94.1049 257.521 94.1199 257.521 93.1599V89.5599H259.381ZM264.083 95.6949C266.288 95.6949 268.043 93.9699 268.043 91.7499C268.043 89.5149 266.288 87.8049 264.083 87.8049C261.893 87.8049 260.123 89.5149 260.123 91.7499C260.123 93.9699 261.893 95.6949 264.083 95.6949ZM264.083 94.1199C262.763 94.1199 261.743 93.1149 261.743 91.7499C261.743 90.3849 262.763 89.3799 264.083 89.3799C265.403 89.3799 266.423 90.3849 266.423 91.7499C266.423 93.1149 265.403 94.1199 264.083 94.1199ZM271.128 89.2599V87.9999H269.508V95.4999H271.128V91.7199C271.128 90.0399 272.373 89.5449 273.438 89.6199V87.8649C272.493 87.8649 271.578 88.2399 271.128 89.2599ZM275.558 92.4399H281.528C281.558 92.2299 281.588 91.9899 281.588 91.7649C281.588 89.6049 280.058 87.8049 277.823 87.8049C275.468 87.8049 273.863 89.5299 273.863 91.7499C273.863 93.9999 275.468 95.6949 277.943 95.6949C279.413 95.6949 280.538 95.0799 281.228 94.0599L279.893 93.2799C279.533 93.8049 278.858 94.2099 277.958 94.2099C276.758 94.2099 275.813 93.6099 275.558 92.4399ZM275.543 91.1199C275.768 89.9949 276.593 89.2749 277.808 89.2749C278.783 89.2749 279.728 89.8299 279.953 91.1199H275.543Z"
      fill="white"
    />
<rect x="169.294" y="116" width="140" height="36.3127" rx="7" fill="black" />
<path
      d="M179.717 121.413C179.42 121.814 179.27 122.326 179.297 122.847V145.47C179.272 145.991 179.422 146.503 179.717 146.905L179.786 146.982L191.047 134.305V134.004L179.786 121.336L179.717 121.413Z"
      fill="url(#paint0_linear_2109_24201)"
    />
<path
      d="M194.803 138.53L191.047 134.304V134.004L194.803 129.786L194.887 129.838L199.338 132.681C200.613 133.488 200.613 134.82 199.338 135.635L194.887 138.478L194.803 138.53Z"
      fill="url(#paint1_linear_2109_24201)"
    />
<path
      d="M194.887 138.478L191.07 134.184L179.717 146.904C179.979 147.146 180.305 147.283 180.643 147.294C180.982 147.305 181.314 147.189 181.588 146.964L194.864 138.478"
      fill="url(#paint2_linear_2109_24201)"
    />
<path
      d="M194.887 129.838L181.588 121.343C181.317 121.109 180.983 120.988 180.641 121.001C180.3 121.013 179.974 121.159 179.717 121.412L191.047 134.158L194.887 129.838Z"
      fill="url(#paint3_linear_2109_24201)"
    />
<path
      opacity="0.1"
      d="M194.803 138.383L181.588 146.818C181.324 147.039 181.004 147.158 180.675 147.158C180.347 147.158 180.027 147.039 179.763 146.818L179.694 146.895L179.763 146.972C180.027 147.193 180.347 147.313 180.675 147.313C181.004 147.313 181.324 147.193 181.588 146.972L194.864 138.487L194.803 138.383Z"
      fill="black"
    />
<path
      opacity="0.07"
      d="M179.717 146.766C179.421 146.361 179.271 145.846 179.297 145.323V145.469C179.272 145.99 179.422 146.502 179.717 146.903L179.786 146.826L179.717 146.766Z"
      fill="black"
    />
<path
      opacity="0.07"
      d="M199.338 135.481L194.803 138.384L194.887 138.479L199.338 135.602C199.599 135.472 199.825 135.268 199.993 135.008C200.16 134.749 200.264 134.444 200.292 134.124C200.24 134.419 200.126 134.696 199.96 134.932C199.795 135.168 199.581 135.356 199.338 135.481Z"
      fill="black"
    />
<path
      opacity="0.3"
      d="M181.588 121.498L199.338 132.827C199.579 132.949 199.791 133.133 199.957 133.364C200.122 133.595 200.237 133.867 200.292 134.158C200.265 133.838 200.162 133.533 199.995 133.273C199.827 133.013 199.6 132.809 199.338 132.681L181.588 121.344C180.336 120.536 179.297 121.206 179.297 122.847V122.993C179.297 121.361 180.336 120.682 181.588 121.498Z"
      fill="white"
    />
<path
      d="M225.559 133.726H220.309V135.271H223.819C223.504 136.681 222.334 137.671 220.429 137.671C218.074 137.671 216.544 136.036 216.544 133.921C216.544 131.776 218.104 130.141 220.324 130.141C221.704 130.141 222.874 130.831 223.414 131.806L224.899 130.951C224.014 129.466 222.319 128.461 220.324 128.461C217.174 128.461 214.819 130.891 214.819 133.906C214.819 136.921 217.144 139.351 220.414 139.351C223.489 139.351 225.559 137.311 225.559 134.446V133.726ZM230.571 139.351C232.776 139.351 234.531 137.626 234.531 135.406C234.531 133.171 232.776 131.461 230.571 131.461C228.381 131.461 226.611 133.171 226.611 135.406C226.611 137.626 228.381 139.351 230.571 139.351ZM230.571 137.776C229.251 137.776 228.231 136.771 228.231 135.406C228.231 134.041 229.251 133.036 230.571 133.036C231.891 133.036 232.911 134.041 232.911 135.406C232.911 136.771 231.891 137.776 230.571 137.776ZM239.536 139.351C241.741 139.351 243.496 137.626 243.496 135.406C243.496 133.171 241.741 131.461 239.536 131.461C237.346 131.461 235.576 133.171 235.576 135.406C235.576 137.626 237.346 139.351 239.536 139.351ZM239.536 137.776C238.216 137.776 237.196 136.771 237.196 135.406C237.196 134.041 238.216 133.036 239.536 133.036C240.856 133.036 241.876 134.041 241.876 135.406C241.876 136.771 240.856 137.776 239.536 137.776ZM250.931 131.656V132.766C250.361 131.956 249.476 131.461 248.321 131.461C246.206 131.461 244.541 133.186 244.541 135.331C244.541 137.476 246.206 139.201 248.321 139.201C249.476 139.201 250.361 138.706 250.931 137.896V138.811C250.931 140.116 250.091 140.881 248.696 140.881C247.391 140.881 246.836 140.371 246.506 139.726L245.111 140.536C245.741 141.736 247.016 142.351 248.666 142.351C250.631 142.351 252.521 141.226 252.521 138.811V131.656H250.931ZM248.546 137.686C247.181 137.686 246.161 136.681 246.161 135.331C246.161 133.981 247.181 132.976 248.546 132.976C249.911 132.976 250.931 133.981 250.931 135.331C250.931 136.681 249.911 137.686 248.546 137.686ZM254.409 139.156H256.029V128.206H254.409V139.156ZM259.185 136.096H265.155C265.185 135.886 265.215 135.646 265.215 135.421C265.215 133.261 263.685 131.461 261.45 131.461C259.095 131.461 257.49 133.186 257.49 135.406C257.49 137.656 259.095 139.351 261.57 139.351C263.04 139.351 264.165 138.736 264.855 137.716L263.52 136.936C263.16 137.461 262.485 137.866 261.585 137.866C260.385 137.866 259.44 137.266 259.185 136.096ZM259.17 134.776C259.395 133.651 260.22 132.931 261.435 132.931C262.41 132.931 263.355 133.486 263.58 134.776H259.17ZM274.365 128.656H270.495V139.156H272.22V135.556H274.365C276.345 135.556 277.845 134.041 277.845 132.106C277.845 130.156 276.345 128.656 274.365 128.656ZM274.365 133.936H272.22V130.276H274.365C275.385 130.276 276.12 131.041 276.12 132.106C276.12 133.156 275.385 133.936 274.365 133.936ZM279.238 139.156H280.858V128.206H279.238V139.156ZM288.679 131.656V132.721C288.109 131.941 287.224 131.461 286.054 131.461C284.014 131.461 282.319 133.171 282.319 135.406C282.319 137.626 284.014 139.351 286.054 139.351C287.224 139.351 288.109 138.871 288.679 138.076V139.156H290.299V131.656H288.679ZM286.309 137.806C284.959 137.806 283.939 136.801 283.939 135.406C283.939 134.011 284.959 133.006 286.309 133.006C287.659 133.006 288.679 134.011 288.679 135.406C288.679 136.801 287.659 137.806 286.309 137.806ZM297.242 131.656L295.322 137.101L293.087 131.656H291.317L294.497 139.021L294.422 139.171C294.047 140.161 293.477 140.701 292.427 140.641V142.156C294.152 142.261 295.382 141.301 296.087 139.396L298.967 131.656H297.242Z"
      fill="white"
    />
</g>
<defs>
<filter
      id="filter0_d_2109_24201"
      x="-34"
      y="-26"
      width="405.916"
      height="278"
      filterUnits="userSpaceOnUse"
      color-interpolation-filters="sRGB"
    >
<feFlood flood-opacity="0" result="BackgroundImageFix" />
<feColorMatrix
        in="SourceAlpha"
        type="matrix"
        values="0 0 0 0 0 0 0 0 0 0 0 0 0 0 0 0 0 0 127 0"
        result="hardAlpha"
      />
<feOffset dx="-4" dy="4" />
<feGaussianBlur stdDeviation="15" />
<feComposite in2="hardAlpha" operator="out" />
<feColorMatrix
        type="matrix"
        values="0 0 0 0 0.264444 0 0 0 0 0.2652 0 0 0 0 0.266667 0 0 0 0.12 0"
      />
<feBlend
        mode="normal"
        in2="BackgroundImageFix"
        result="effect1_dropShadow_2109_24201"
      />
<feBlend
        mode="normal"
        in="SourceGraphic"
        in2="effect1_dropShadow_2109_24201"
        result="shape"
      />
</filter>
<linearGradient
      id="paint0_linear_2109_24201"
      x1="190.054"
      y1="122.607"
      x2="173.004"
      y2="137.763"
      gradientUnits="userSpaceOnUse"
    >
<stop stop-color="#008EFF" />
<stop offset="0.01" stop-color="#008FFF" />
<stop offset="0.26" stop-color="#00ACFF" />
<stop offset="0.51" stop-color="#00C0FF" />
<stop offset="0.76" stop-color="#00CDFF" />
<stop offset="1" stop-color="#00D1FF" />
</linearGradient>
<linearGradient
      id="paint1_linear_2109_24201"
      x1="199.491"
      y1="134.158"
      x2="177.488"
      y2="134.158"
      gradientUnits="userSpaceOnUse"
    >
<stop stop-color="#FFD800" />
<stop offset="1" stop-color="#FF8A00" />
</linearGradient>
<linearGradient
      id="paint2_linear_2109_24201"
      x1="192.803"
      y1="136.503"
      x2="169.687"
      y2="157.05"
      gradientUnits="userSpaceOnUse"
    >
<stop stop-color="#FF3A44" />
<stop offset="1" stop-color="#B11162" />
</linearGradient>
<linearGradient
      id="paint3_linear_2109_24201"
      x1="176.862"
      y1="113.88"
      x2="187.19"
      y2="123.053"
      gradientUnits="userSpaceOnUse"
    >
<stop stop-color="#328E71" />
<stop offset="0.07" stop-color="#2D9571" />
<stop offset="0.48" stop-color="#15BD74" />
<stop offset="0.8" stop-color="#06D575" />
<stop offset="1" stop-color="#00DE76" />
</linearGradient>
<clipPath id="clip0_2109_24201">
<rect width="345.916" height="218" fill="white" />
</clipPath>
<clipPath id="clip1_2109_24201">
<rect
        width="22"
        height="26"
        fill="white"
        transform="translate(179.294 77.4999)"
      />
</clipPath>
</defs>
</svg>
